<svg viewBox="0 0 710 376" fill="none" xmlns="http://www.w3.org/2000/svg"><path d="M163.683 220.877H252.854V203.325L293.518 245.797C293.83 246.11 294.14 246.427 294.447 246.748C318.785 272.145 318.208 312.575 292.963 337.142C267.717 361.708 227.799 360.693 203.46 335.296C202.522 334.317 201.62 333.315 200.755 332.294C173.184 301 160.483 260.501 163.683 220.877Z" fill="#58CC02"/><path d="M626.37 303.946C618.409 312.498 605.023 312.978 596.47 305.017L596.443 304.991L572.046 282.2C563.488 274.206 563.02 260.792 570.999 252.22C578.96 243.668 592.346 243.188 600.899 251.149L600.926 251.175L625.323 273.966C633.881 281.96 634.349 295.374 626.37 303.946ZM626.37 162.235C634.349 170.806 633.881 184.22 625.323 192.215L600.926 215.006C600.917 215.014 600.908 215.023 600.899 215.031C592.346 222.992 578.96 222.513 570.999 213.961C563.02 205.389 563.488 191.975 572.046 183.98L596.443 161.189C596.452 161.181 596.461 161.172 596.47 161.164C605.023 153.203 618.409 153.682 626.37 162.235Z" fill="#F49000"/><path d="M514.159 357.14H346.775L291.208 334.649C215.846 304.147 179.434 218.366 209.844 142.967C240.204 67.6884 325.842 31.275 401.121 61.6357C401.177 61.6583 401.233 61.681 401.289 61.7036L488.985 97.1981C564.347 127.7 600.758 213.481 570.349 288.88C558.614 317.977 538.62 341.267 514.159 357.14Z" fill="#58CC02"/><path d="M197.035 209.308C208.729 209.308 218.208 199.812 218.208 188.098C218.208 176.384 208.729 166.888 197.035 166.888C185.341 166.888 175.862 176.384 175.862 188.098C175.862 199.812 185.341 209.308 197.035 209.308Z" fill="#8EE000"/><path d="M152.766 224.733C152.766 215.503 160.248 208.021 169.478 208.021H192.517C201.747 208.021 209.229 215.503 209.229 224.733C209.229 233.962 201.747 241.444 192.517 241.444H169.478C160.248 241.444 152.766 233.962 152.766 224.733Z" fill="#58CC02"/><path d="M451.454 17.126C456.55 15.6137 461.837 14.8457 467.153 14.8457C497.628 14.8457 522.333 39.5507 522.333 70.0259V164.826C522.333 173.844 521.439 182.84 519.665 191.682C504.833 265.591 432.894 313.482 358.985 298.651C343.76 305.78 327.154 309.475 310.342 309.475C246.992 309.475 195.637 258.119 195.637 194.769V76.0279C195.637 63.6835 199.776 51.6957 207.393 41.9812C226.196 17.9986 260.881 13.8001 284.864 32.6036C297.194 42.2715 309.054 47.1055 320.442 47.1055C340.436 47.1055 384.106 37.1123 451.454 17.126Z" fill="#58CC02"/><path d="M334.98 96.6965C344.35 86.466 347.751 115.883 345.184 184.948H276.775C264.834 106.382 267.98 76.9151 286.212 96.5459C297.979 109.493 320.924 112.042 334.98 96.6965Z" fill="#8EE000"/><path d="M386.475 74.1084H390.599C424.431 74.1084 451.857 101.535 451.857 135.367V172.475C451.857 206.307 424.431 233.733 390.599 233.733H386.475C352.643 233.733 325.217 206.307 325.217 172.475V135.367C325.217 101.535 352.643 74.1084 386.475 74.1084Z" fill="#89E219"/><path d="M378.724 49.0827C381.322 46.194 384.923 46.6788 386.861 50.0399C396.169 66.1891 394.044 86.8496 381.236 101.088C368.428 115.327 348.124 119.602 331.107 112.024C327.565 110.447 326.597 105.866 329.195 102.977L378.724 49.0827Z" fill="#89E219"/><path d="M403.376 61.8963C405.974 59.0075 410.627 59.4921 412.564 62.8533C421.872 79.0024 419.747 99.663 406.939 113.902C394.132 128.14 373.827 132.416 356.81 124.837C353.268 123.26 352.3 118.679 354.899 115.79L403.376 61.8963Z" fill="#89E219"/><path d="M244.158 51.071L284.411 94.6523C286.517 96.9934 285.216 101.173 281.841 102.906C265.624 111.235 247.493 109.28 237.111 97.7407C226.73 86.2012 226.68 67.9471 236.648 52.6724C238.722 49.4932 242.051 48.7299 244.158 51.071Z" fill="#89E219"/><path d="M224.557 63.7935L263.878 107.501C265.986 109.844 264.685 114.024 261.309 115.757C245.091 124.084 226.953 122.122 216.565 110.575C206.176 99.0271 206.12 80.766 216.085 65.4889C218.16 62.3092 222.449 61.4508 224.557 63.7935Z" fill="#89E219"/><path d="M243.328 74.1084C269.904 74.1084 291.449 95.6529 291.449 122.229V185.612C291.449 212.189 269.904 233.733 243.328 233.733C216.751 233.733 195.207 212.189 195.207 185.612V122.229C195.207 95.6529 216.751 74.1084 243.328 74.1084Z" fill="#89E219"/><path d="M386.702 95.4697C411.536 95.4697 431.668 115.602 431.668 140.436V168.325C431.668 193.16 411.536 213.292 386.702 213.292C361.867 213.292 341.735 193.16 341.735 168.325V140.436C341.735 115.602 361.867 95.4697 386.702 95.4697ZM249.601 96.7552C269.466 96.7552 285.57 112.859 285.57 132.724V177.323C285.57 197.188 269.466 213.292 249.601 213.292C229.736 213.292 213.632 197.188 213.632 177.323V132.724C213.632 112.859 229.736 96.7552 249.601 96.7552Z" fill="white"/><path d="M249.535 130.801C259.165 130.801 266.971 138.607 266.971 148.237V179.64C266.971 189.269 259.165 197.076 249.535 197.076C239.905 197.076 232.099 189.269 232.099 179.64V148.237C232.099 138.607 239.905 130.801 249.535 130.801Z" fill="#4B4B4B"/><path d="M234.095 153.115C240.473 153.115 245.644 147.935 245.644 141.545C245.644 135.156 240.473 129.976 234.095 129.976C227.717 129.976 222.546 135.156 222.546 141.545C222.546 147.935 227.717 153.115 234.095 153.115Z" fill="white"/><path d="M377.966 130.801C389.614 130.801 399.056 140.243 399.056 151.891V175.823C399.056 187.47 389.614 196.913 377.966 196.913C366.318 196.913 356.876 187.47 356.876 175.823V151.891C356.876 140.243 366.318 130.801 377.966 130.801Z" fill="#4B4B4B"/><path d="M361.532 153.115C367.91 153.115 373.081 147.935 373.081 141.545C373.081 135.156 367.91 129.976 361.532 129.976C355.154 129.976 349.983 135.156 349.983 141.545C349.983 147.935 355.154 153.115 361.532 153.115Z" fill="white"/><path d="M196.717 208.125C185.352 208.303 175.995 199.234 175.817 187.87C175.639 176.505 184.708 167.148 196.072 166.97C197.035 166.955 198.583 166.964 200.641 167.027C203.925 167.128 207.564 167.342 211.483 167.7C222.708 168.726 234.095 170.716 245.101 173.976C256.613 177.386 267.083 182.014 276.203 188.14C285.637 194.478 288.148 207.265 281.81 216.7C275.471 226.134 262.685 228.645 253.25 222.307C247.902 218.714 241.179 215.742 233.412 213.442C225.247 211.023 216.452 209.486 207.736 208.689C204.675 208.41 201.862 208.244 199.381 208.168C197.979 208.125 197.063 208.12 196.717 208.125Z" fill="#89E219"/><path d="M307.96 159.356C320.63 159.356 330.902 169.628 330.902 182.299V225.114C330.902 237.785 320.63 248.056 307.96 248.056C295.289 248.056 285.018 237.785 285.018 225.114V182.299C285.018 169.628 295.289 159.356 307.96 159.356Z" fill="#F49000"/><path d="M309.198 163.213C310.095 163.213 310.991 163.282 311.877 163.42C321.377 164.9 327.879 173.801 326.399 183.301L319.874 225.199C318.599 233.386 311.548 239.423 303.263 239.423C295.312 239.423 288.867 232.978 288.867 225.027V183.543C288.867 172.315 297.97 163.213 309.198 163.213Z" fill="#CD7900"/><path d="M298.242 238.524C297.93 236.821 297.768 235.066 297.768 233.273C297.768 218.504 308.817 206.321 323.087 204.566L319.873 225.199C318.598 233.386 311.548 239.423 303.262 239.423C301.497 239.423 299.805 239.105 298.242 238.524Z" fill="#FFCAFF"/><path d="M335.623 129.699V189.078H285.242V129.699H335.623Z" fill="#8EE000"/><path d="M338.414 197.924L338.587 198.973L290.133 204.4L274.349 198.973L274.522 197.924C277.045 182.641 290.537 171.263 306.468 171.263C322.399 171.263 335.89 182.641 338.414 197.924Z" fill="#FFC200"/><path d="M311.095 185.359C307.144 184.044 303.269 184.044 299.318 185.359C296.908 186.162 294.304 184.859 293.502 182.45C292.7 180.04 294.002 177.436 296.412 176.634C302.249 174.69 308.163 174.69 314.001 176.634C316.41 177.436 317.713 180.04 316.91 182.45C316.108 184.859 313.504 186.162 311.095 185.359Z" fill="#FFDE00"/><path d="M447.744 209.581C447.636 209.572 447.322 209.549 446.816 209.516C445.905 209.458 444.829 209.399 443.601 209.344C440.026 209.183 436.002 209.091 431.641 209.102C419.235 209.136 406.743 209.99 395.119 211.903C385.794 213.438 377.479 215.593 370.497 218.366C369.647 218.703 368.774 219.033 367.516 219.497C367.212 219.609 366.797 219.762 366.096 220.02C365.554 220.22 365.139 220.374 364.745 220.521C364.177 220.734 363.685 220.922 363.241 221.096C362.119 221.535 361.38 221.859 361.226 221.942C351.225 227.344 338.739 223.616 333.338 213.615C327.936 203.615 331.664 191.129 341.664 185.727C343.612 184.675 345.684 183.767 348.239 182.767C348.89 182.512 349.565 182.254 350.31 181.976C350.067 182.066 354.558 180.408 355.308 180.11C365.279 176.152 376.386 173.273 388.433 171.289C402.461 168.98 417.079 167.981 431.531 167.943C436.571 167.929 441.245 168.036 445.451 168.225C448.041 168.342 449.949 168.464 451.073 168.555C462.402 169.475 470.84 179.404 469.921 190.732C469.002 202.061 459.073 210.5 447.744 209.581Z" fill="#89E219"/><path d="M407.973 222.805C407.973 213.575 415.455 206.093 424.685 206.093H505.469C514.699 206.093 522.181 213.575 522.181 222.805C522.181 232.035 514.699 239.517 505.469 239.517H424.685C415.455 239.517 407.973 232.035 407.973 222.805Z" fill="#43C000"/><path d="M412.065 211.88H511.66L518.108 286.321C518.156 286.762 518.199 287.204 518.237 287.647C521.298 322.782 495.515 353.807 460.439 356.889C425.364 359.971 394.879 333.897 391.818 298.762C391.7 297.407 391.625 296.058 391.591 294.717C390.245 264.922 397.738 236.282 412.065 211.88Z" fill="#43C000"/><path d="M369.629 197.737H419.673L404.918 218.305H369.629V197.737Z" fill="#8EE000"/><path d="M201.365 188.434C197.508 189.054 193.878 186.429 193.258 182.572C192.638 178.714 195.263 175.084 199.121 174.465C206.706 173.246 213.469 174.189 219.167 177.465C222.554 179.412 223.722 183.736 221.775 187.124C219.828 190.511 215.504 191.679 212.116 189.732C209.434 188.19 205.93 187.701 201.365 188.434Z" fill="#9AF300"/><path d="M424.969 188.434C428.826 189.054 432.456 186.429 433.076 182.572C433.696 178.714 431.071 175.084 427.213 174.465C419.628 173.246 412.865 174.189 407.167 177.465C403.78 179.412 402.612 183.736 404.559 187.124C406.506 190.511 410.83 191.679 414.218 189.732C416.9 188.19 420.404 187.701 424.969 188.434Z" fill="#9AF300"/><path d="M281.598 282.115H371.908C390.078 282.115 408.188 284.21 425.878 288.359L566.955 321.443C569.52 322.045 571.333 324.332 571.333 326.967V341.158H222.556C222.556 308.549 248.99 282.115 281.598 282.115Z" fill="#FAFAFA"/><mask id="mask0" mask-type="alpha" maskUnits="userSpaceOnUse" x="72" y="283" width="377" height="64"><path d="M259.908 343.493C259.952 344.443 259.974 345.398 259.974 346.359H72.4099V326.48C72.4099 324.082 73.9528 321.957 76.2325 321.214L179.15 287.685C185.322 285.674 191.773 284.65 198.265 284.65C213.249 284.65 226.985 289.991 237.675 298.872C248.386 289.13 262.618 283.191 278.237 283.191C282.979 283.191 287.705 283.751 292.316 284.858L448.914 322.459V343.493H259.908Z" fill="white"/></mask><g mask="url(#mask0)"><path d="M259.908 343.493C259.952 344.443 259.974 345.398 259.974 346.359H72.4099V326.48C72.4099 324.082 73.9528 321.957 76.2325 321.214L179.15 287.685C185.322 285.674 191.773 284.65 198.265 284.65C213.249 284.65 226.985 289.991 237.675 298.872C248.386 289.13 262.618 283.191 278.237 283.191C282.979 283.191 287.705 283.751 292.316 284.858L448.914 322.459V343.493H259.908Z" fill="#F0F0F0"/><path d="M67.8441 346.22L182.601 310.208C188.026 308.441 193.619 307.552 199.246 307.552C212.06 307.552 224.187 312.072 233.905 320.224C236.184 322.137 239.527 322.065 241.723 320.058C251.424 311.186 263.917 306.209 277.175 306.209C281.264 306.209 285.34 306.692 289.321 307.648L446.838 343.665L472.695 343.491L290.707 301.878C286.271 300.813 281.731 300.275 277.175 300.275C262.02 300.275 248.195 306.099 237.719 315.679C227.244 306.891 213.847 301.618 199.246 301.618C192.995 301.618 186.781 302.606 180.824 304.546L47.592 346.357L67.8441 346.22ZM182.601 310.208C188.026 308.441 193.619 307.552 199.246 307.552C212.06 307.552 224.187 312.072 233.905 320.224C236.184 322.137 239.527 322.065 241.723 320.058C251.424 311.186 263.917 306.209 277.175 306.209C281.264 306.209 285.34 306.692 289.321 307.648L446.838 343.665L472.695 343.491L290.707 301.878C286.271 300.813 281.731 300.275 277.175 300.275C262.02 300.275 248.195 306.099 237.719 315.679C227.244 306.891 213.847 301.618 199.246 301.618C192.995 301.618 186.781 302.606 180.824 304.546L47.592 346.357L67.8441 346.22L182.601 310.208ZM259.91 360.9L259.973 363.766C259.973 362.805 259.952 361.85 259.91 360.9ZM259.91 360.9C259.952 361.85 259.973 362.805 259.973 363.766L259.91 360.9Z" fill="white"/><path d="M67.8441 366.08L182.601 330.068C188.026 328.301 193.619 327.412 199.246 327.412C212.06 327.412 224.187 331.932 233.905 340.085C236.184 341.997 239.527 341.925 241.723 339.918C251.424 331.046 263.917 326.069 277.175 326.069C281.264 326.069 285.34 326.552 289.321 327.508L446.838 363.526L472.695 363.351L290.707 321.739C286.271 320.674 281.731 320.136 277.175 320.136C262.02 320.136 248.195 325.959 237.719 335.539C227.244 326.752 213.847 321.478 199.246 321.478C192.995 321.478 186.781 322.466 180.824 324.407L47.592 366.217L67.8441 366.08ZM182.601 330.068C188.026 328.301 193.619 327.412 199.246 327.412C212.06 327.412 224.187 331.932 233.905 340.085C236.184 341.997 239.527 341.925 241.723 339.918C251.424 331.046 263.917 326.069 277.175 326.069C281.264 326.069 285.34 326.552 289.321 327.508L446.838 363.526L472.695 363.351L290.707 321.739C286.271 320.674 281.731 320.136 277.175 320.136C262.02 320.136 248.195 325.959 237.719 335.539C227.244 326.752 213.847 321.478 199.246 321.478C192.995 321.478 186.781 322.466 180.824 324.407L47.592 366.217L67.8441 366.08L182.601 330.068ZM259.91 380.76L259.973 383.626C259.973 382.665 259.952 381.71 259.91 380.76ZM259.91 380.76C259.952 381.71 259.973 382.665 259.973 383.626L259.91 380.76Z" fill="white"/></g><path d="M448.914 322.47H565.794C568.853 322.47 571.332 324.949 571.332 328.008V343.494H448.914V322.47Z" fill="#E7E7E7"/><path d="M251.341 372.79C247.736 370.249 244.628 368.978 242.016 368.978H234.018C231.406 368.978 228.298 370.249 224.693 372.79C221.875 374.777 218.512 375.844 215.064 375.844H69.6422C66.5837 375.844 64.1042 373.364 64.1042 370.306V348.607C64.1042 345.548 66.5837 343.069 69.6422 343.069H216.404C219.464 339.569 223.873 337.502 228.575 337.502H247.459C252.161 337.502 256.57 339.569 259.63 343.069H448.905V375.844H260.97C257.522 375.844 254.159 374.777 251.341 372.79Z" fill="#FFD433"/><path d="M448.914 342.828H574.109C577.168 342.828 579.647 345.308 579.647 348.366V370.306C579.647 373.365 577.168 375.844 574.109 375.844H448.914V342.828Z" fill="#FFB200"/><path opacity="0.7754" d="M2.98526 130.136L26.97 106.002C30.1256 102.827 35.2578 102.811 38.433 105.967C38.4448 105.978 38.4567 105.99 38.4685 106.002L62.5401 130.223C65.6819 133.385 65.6819 138.49 62.5401 141.651L38.5554 165.785C35.3998 168.96 30.2676 168.976 27.0924 165.82C27.0806 165.808 27.0687 165.796 27.0569 165.785L2.98526 141.563C-0.156544 138.402 -0.156544 133.297 2.98526 130.136Z" fill="#71C8FF"/><path opacity="0.5435" d="M85.5157 29.1319L98.3977 16.1699C100.708 13.8455 104.465 13.8339 106.789 16.1439C106.798 16.1525 106.806 16.1612 106.815 16.1699L119.749 29.1843C122.049 31.4985 122.049 35.2355 119.749 37.5497L106.867 50.5117C104.557 52.836 100.8 52.8477 98.4758 50.5376C98.4671 50.529 98.4585 50.5203 98.4499 50.5117L85.5157 37.4972C83.2158 35.183 83.2158 31.4461 85.5157 29.1319Z" fill="#71C8FF"/><path opacity="0.7754" d="M651.974 24.7365L673.842 2.84397C677.021 -0.336951 682.176 -0.33886 685.357 2.83971L685.361 2.84397L707.307 24.8227C710.484 28.002 710.484 33.1541 707.307 36.3334L685.443 58.2301C682.265 61.4111 677.109 61.413 673.928 58.2344L673.924 58.2301L651.979 36.2514C648.802 33.0721 648.802 27.92 651.979 24.7407L651.974 24.7365Z" fill="#71C8FF"/></svg>