<svg width="226" height="253" viewBox="0 0 226 253" fill="none" xmlns="http://www.w3.org/2000/svg"><rect opacity="0.6" x="216.305" y="155.62" width="13.3062" height="13.3062" rx="1.71093" transform="rotate(-135 216.305 155.62)" fill="#FFC800"/><path d="M37.1116 185.65C34.0297 218.426 68.3036 248.155 113.664 252.05C159.025 255.944 198.296 232.531 201.378 199.757C204.46 166.98 170.186 137.252 124.825 133.357C79.4641 129.461 40.1935 152.874 37.1116 185.65Z" fill="#AFAFAF" fill-opacity="0.3"/><path d="M47.8234 195.416L91.0315 238.093C91.8732 238.922 94.8027 239.874 95.944 239.489L178.276 211.411L182.601 209.765C184.329 208.871 184.752 207.18 186.013 205.763C186.073 204.715 185.571 203.637 184.455 203.035L159.633 189.594L120.316 168.298C119.55 167.885 118.633 167.802 117.798 168.077L49.0682 190.514C46.9032 191.221 46.2369 193.848 47.8234 195.416Z" fill="#FF7878"/><path d="M191.429 194.903C191.985 203.366 185.534 210.681 177.019 211.241C168.504 211.8 161.151 205.393 160.594 196.929C160.038 188.465 166.49 181.151 175.005 180.591C183.519 180.032 190.873 186.439 191.429 194.903Z" fill="#FF7878"/><path d="M54.8024 194.86C53.3844 193.418 53.7037 190.844 53.571 188.826L52.5245 172.9L93.8065 209.679L173.328 187.233C179.5 185.302 185.853 189.655 186.277 196.108C186.277 196.112 186.277 196.112 186.278 196.115C186.574 200.62 183.806 204.764 179.531 206.222L96.0617 232.887C94.8391 233.278 93.5008 232.945 92.6031 232.028L54.8024 194.86Z" fill="#F7F7F7"/><path d="M100.219 211.57L174.65 186.327L186.531 184.786L151.626 150.072L55.8108 174.013L92.6907 210.692C95.2724 213.091 96.8761 212.685 100.219 211.57Z" fill="#FF7878"/><path d="M46.292 173.025C46.292 181.086 53.1417 187.622 61.5854 187.622C62.183 187.622 62.7703 187.588 63.3508 187.525C64.9618 187.349 66.4984 186.933 67.9181 186.314C69.6396 185.568 71.1936 184.52 72.4993 183.245C75.2109 180.613 76.8789 177.005 76.8789 173.025C76.8789 164.968 70.0326 158.432 61.5854 158.432C55.7526 158.432 50.678 161.55 48.1008 166.136C46.9461 168.186 46.292 170.532 46.292 173.025Z" fill="#FFC200"/><path d="M150.467 209.655L194.308 161.43C196.035 159.53 195.05 156.474 192.539 155.94L131.545 142.98L55.1247 186.283L143.867 211.553C146.249 212.22 148.803 211.485 150.467 209.655Z" fill="#FFC200"/><path d="M188.542 160.016C189.529 158.96 190.106 157.587 190.172 156.145L191.023 137.856L144.817 183.914L144.813 185.196L65.1348 163.776C58.7271 162.059 52.4058 166.816 52.291 173.45V173.634C52.291 178.215 55.356 182.249 60.155 183.601L142.139 205.946C143.754 206.386 145.481 205.898 146.627 204.677L188.542 160.016Z" fill="#F7F7F7"/><path d="M147.85 184.307L192.672 139.882C194.597 137.975 193.554 134.69 190.882 134.241L114.394 114.415L52.9253 160.997L61.8492 162.872L141.446 185.947C143.72 186.6 146.169 185.972 147.85 184.307Z" fill="#FFC200"/><path fill-rule="evenodd" clip-rule="evenodd" d="M141.045 141.912C135.676 144.847 133.702 151.578 136.637 156.948L138.362 160.104C141.296 165.474 148.028 167.447 153.397 164.513C158.767 161.578 160.74 154.847 157.806 149.477L156.081 146.321C153.146 140.952 146.415 138.978 141.045 141.912Z" fill="#F49000"/><path fill-rule="evenodd" clip-rule="evenodd" d="M82.3453 129.074C78.1211 124.647 71.108 124.483 66.6811 128.707L64.0787 131.191C59.6518 135.415 59.4875 142.428 63.7117 146.855C67.9359 151.282 74.9491 151.446 79.376 147.222L81.9783 144.739C86.4053 140.514 86.5696 133.501 82.3453 129.074Z" fill="#F49000"/><path d="M29.0685 116.168C29.7823 130.22 31.2792 139.128 41.908 137.884C52.5369 136.64 81.1049 122.272 80.3912 108.22C79.6774 94.1685 71.94 84.9958 61.3112 86.2398C53.1785 91.8467 29.9419 102.754 29.0685 116.168Z" fill="#58CC02"/><path d="M121.456 16.5449C109.363 17.8833 100.818 9.2362 81.5279 11.8049C45.9319 16.5449 43.5588 58.2117 50.4143 98.0266C51.8509 111.006 58.0825 176.599 127.144 168.955C204.748 160.366 192.257 75.5876 188.053 38.436C185.227 12.909 158.664 7.88954 147.19 9.15951C135.72 10.4289 129.329 15.6735 121.456 16.5449Z" fill="#58CC02"/><path fill-rule="evenodd" clip-rule="evenodd" d="M168.027 115.188C167.586 114.79 166.906 114.825 166.508 115.266C162.274 119.96 160.193 122.206 158.06 124.113C156.214 125.762 154.326 127.162 150.943 129.669C150.407 130.067 149.833 130.492 149.215 130.951C148.739 131.305 148.639 131.979 148.994 132.455C149.348 132.932 150.021 133.031 150.498 132.677C151.112 132.221 151.684 131.797 152.221 131.399C155.59 128.902 157.568 127.436 159.493 125.716C161.729 123.718 163.888 121.382 168.105 116.707C168.503 116.266 168.468 115.586 168.027 115.188Z" fill="#50BB00"/><path d="M54.6375 53.8821C53.5432 58.4181 54.919 65.0532 57.531 68.8959C53.3789 71.2831 53.7855 81.4618 54.7819 88.1049C55.3583 91.9484 54.5023 99.682 58.0334 110.215C64.3018 123.423 73.8639 126.694 78.2445 126.747C94.3264 127.133 97.9689 115.138 98.9655 114.3L109.941 112.724C114.484 118.548 127.694 129.575 144.198 127.1C164.824 124.007 173.069 108.097 171.53 88.9739C169.643 65.5321 165.269 64.3651 158.309 60.4731C158.563 50.5632 153.258 46.8744 151.895 46.2753C150.527 45.6769 147.926 49.9776 143.81 55.7604C144.273 48.8036 141.838 41.2949 137.075 42.0091C135.999 42.1705 134.555 44.5037 132.304 47.4542C125.377 56.546 113.599 71.4689 98.9655 70.8371C90.5606 70.4747 80.8075 68.1503 76.0663 57.8258C73.0454 51.2446 70.6246 45.9767 68.6266 46.2764C64.6306 46.8757 63.0294 54.9219 62.8258 58.97C62.2039 58.0915 61.5971 56.8558 60.9854 55.6173C59.7933 53.1973 58.5994 50.7648 57.2778 50.963C56.122 51.1363 55.2609 52.4501 54.6375 53.8821Z" fill="#89E219"/><path d="M158.546 84.8176C158.257 77.7303 151.467 67.7407 138.386 68.274C123.046 68.8994 118.616 80.657 118.852 86.4359L119.208 95.1587C119.841 110.697 131.002 114.719 140.264 114.342C155.945 113.703 159.22 100.208 158.902 93.5405L158.546 84.8176Z" fill="white"/><path d="M92.7363 91.6519C92.1611 78.9682 85.9734 73.6329 74.9866 72.5235C69.2619 71.9452 61.1953 75.6169 61.7263 87.3261C61.9343 91.9123 62.3374 95.8771 62.952 99.2962C66.3109 117.98 75.599 120.758 83.5078 120.468C90.7522 120.203 93.7183 113.306 93.471 107.852L92.7363 91.6519Z" fill="white"/><path d="M138.994 90.0471C134.858 90.2158 131.368 86.9991 131.199 82.8625C131.17 82.1618 131.239 81.4796 131.393 80.829C130.953 80.8008 130.489 80.7954 130.001 80.8154C125.189 81.0115 121.864 86.0855 122.088 91.5604L122.398 99.181C122.483 101.269 123.712 107.753 131.087 107.453C138.453 107.152 139.735 100.267 139.662 98.4772L139.495 94.3618C139.548 93.9495 139.577 93.4684 139.58 92.9228C139.586 91.8618 139.534 90.8958 139.434 90.0164C139.289 90.0308 139.142 90.0411 138.994 90.0471Z" fill="#4B4B4B"/><path d="M89.2945 93.1092C85.7383 92.31 83.1695 89.3573 83.3185 85.9341C83.3541 85.1171 83.5416 84.3377 83.8558 83.6172C82.8273 83.097 81.65 82.7689 80.3111 82.7217C74.7576 82.5261 72.3188 86.2685 72.1231 90.7654C71.9274 95.2623 71.8514 111.529 81.8692 111.881C89.7457 112.159 89.5798 106.771 89.4858 103.761C89.4682 103.329 89.4563 102.945 89.4697 102.635C89.5065 101.789 89.48 100.815 89.453 99.8232C89.425 98.7911 89.3964 97.7387 89.4378 96.7882C89.4724 95.418 89.415 94.1956 89.2945 93.1092Z" fill="#4B4B4B"/><path d="M120.076 109.852C124.831 104.146 141.93 93.8175 165.707 98.5729L159.842 114.107L121.482 118.228L120.076 109.852Z" fill="#89E219"/><path d="M97.3868 111.729C92.6315 106.023 77.0973 101.426 56.332 102.536L59.8194 115.851L85.9739 123.301L97.3868 111.729Z" fill="#89E219"/><path d="M107.28 104.902C102.308 105.105 98.4483 109.444 98.6582 114.592C98.8681 119.741 103.069 123.751 108.04 123.548C113.011 123.345 116.871 119.007 116.661 113.858C116.451 108.71 112.251 104.7 107.28 104.902Z" fill="#F49000"/><path d="M94.3613 111.392C94.0733 107.606 97.0447 104.191 103.048 102.949C110.318 101.445 116.472 107.967 117.06 110.811C116.102 116.188 106.042 119.101 101.26 120.098C100.675 120.294 99.8451 120.191 99.2918 119.376C97.5065 117.23 94.5552 113.967 94.3613 111.392Z" fill="#FFC200"/><path fill-rule="evenodd" clip-rule="evenodd" d="M105.518 110.136C106.19 110.177 106.716 110.361 106.879 110.439C108.386 111.151 110.184 110.507 110.896 109C111.608 107.494 110.964 105.695 109.458 104.983C107.982 104.286 104.295 103.292 100.848 105.19C99.388 105.993 98.8559 107.828 99.6594 109.287C100.463 110.747 102.298 111.279 103.757 110.476C104.263 110.197 104.87 110.095 105.518 110.136Z" fill="#FFDE00"/><path d="M86.1935 137.294C86.1935 137.294 79.0162 112.432 50.9881 102.195C50.9881 102.195 40.1455 99.1579 39.7954 106.32C39.1792 111.711 74.6886 144.815 74.6886 144.815L86.1935 137.294Z" fill="#F7F7F7"/><path d="M83.1557 138.158C83.1557 138.158 103.184 114.798 132.657 115.614C132.657 115.614 149.576 116.077 151.242 126.838C150.215 132.151 91.7579 149.545 91.7579 149.545L83.1557 138.158Z" fill="#F7F7F7"/><path d="M82.0178 190.706L47.531 159.458C47.0202 159.023 46.6705 158.392 46.5498 157.687L37.8049 106.661C37.3524 104.02 40.064 102.161 41.9614 103.81L79.0826 136.086L82.0178 190.706Z" fill="#9069CD"/><path d="M148.315 121.375L91.3624 137.981L95.9144 192.977L154.33 178.727C155.626 178.411 156.503 177.055 156.365 175.578L151.563 123.894C151.398 122.118 149.858 120.925 148.315 121.375Z" fill="#9069CD"/><path d="M92.5937 137.917L96.6375 192.077C96.7219 194.14 95.272 195.301 93.4284 195.38L85.1821 194.579C83.3385 194.658 81.7753 193.049 81.6908 190.986L77.4669 139.886L92.5937 137.917Z" fill="#9069CD"/><path d="M92.552 137.25L92.552 140.754C92.6364 142.817 91.1865 143.978 89.3429 144.057L81.0966 143.256C79.253 143.335 77.6893 141.727 77.6049 139.664L78.9787 135.411L92.552 137.25Z" fill="#F7F7F7"/><path d="M172.677 111.096C164.141 124.246 143.194 138.36 143.194 138.36C132.891 144.542 137.069 153.705 145.096 154.845C203.112 163.088 203.411 102.966 185.424 97.1606C185.424 97.1606 181.041 96.9712 172.677 111.096Z" fill="#58CC02"/><path d="M33.1577 134.845C34.5253 136.935 37.2167 140.201 41.5755 142.127C47.7099 144.613 54.0995 145.112 57.031 141.242C58.6689 138.655 56.6745 134.895 53.2626 129.858L37.147 108.401L33.1577 134.845Z" fill="#58CC02"/><rect width="13.1275" height="13.1275" rx="1.71093" transform="matrix(0.707107 -0.707107 -0.707107 -0.707107 20.4766 82.2603)" fill="#FFC800"/><rect opacity="0.6" width="9.33128" height="9.33128" rx="1.71093" transform="matrix(0.707107 -0.707107 -0.707107 -0.707107 6.59766 106.118)" fill="#FFC800"/></svg>